<svg width="388" height="298" viewBox="0 0 388 298" fill="none" xmlns="http://www.w3.org/2000/svg">
<path fill-rule="evenodd" clip-rule="evenodd" d="M32.1213 7.60192e-10H88.1213C96.8541 7.60192e-10 102.492 4.89873 106.421 11.2365C109.82 16.7185 111.98 23.3397 113.792 28.8957C114.067 29.7381 114.334 30.5561 114.596 31.3419C116.582 37.3022 125.562 56.2627 134.071 73.7816C138.32 82.5301 142.445 90.9039 145.507 97.0907C147.038 100.184 148.303 102.731 149.186 104.504C149.627 105.39 149.973 106.084 150.208 106.555L150.567 107.274L150.568 107.276C150.568 107.276 150.568 107.276 150.434 107.343L150.568 107.276L151.157 108.453L99.7366 87.8847L99.657 87.6857L100.071 87.5203C99.8136 87.6231 99.7163 87.662 99.6794 87.6766C99.657 87.6856 99.657 87.6857 99.657 87.6857L99.6566 87.6846L99.5417 87.3977C99.4653 87.2071 99.3516 86.9235 99.2022 86.5516C98.9035 85.8077 98.4622 84.7102 97.8919 83.2964C96.7515 80.4688 95.0955 76.3756 93.0332 71.3137C88.9087 61.1898 83.1594 47.1914 76.6602 31.6934C70.2234 16.3442 59.0915 8.67637 49.5595 4.83882C44.7907 2.91888 40.4234 1.95869 37.2496 1.47875C35.6632 1.23885 34.3762 1.11914 33.4881 1.05942C33.0441 1.02956 32.6999 1.01471 32.4679 1.00731C32.3519 1.00362 32.264 1.00179 32.2057 1.00089C32.1766 1.00043 32.1548 1.00021 32.1407 1.0001L32.1252 1.00001L32.1218 1C32.1218 1 32.1213 1 32.1213 0.5V7.60192e-10ZM40.2553 1C43.0528 1.57531 46.3831 2.482 49.933 3.91118C59.651 7.82363 71.0191 15.6558 77.5824 31.3066C84.0832 46.8086 89.8339 60.8102 93.9593 70.9364C96.0221 75.9995 97.6785 80.0938 98.8194 82.9224C99.3898 84.3367 99.8313 85.4346 100.13 86.1789C100.217 86.3941 100.291 86.5797 100.353 86.7349C100.399 86.8482 100.438 86.9452 100.47 87.0257L100.506 87.1153L149.087 106.548C148.875 106.121 148.607 105.585 148.291 104.949C147.408 103.176 146.142 100.628 144.611 97.5343C141.548 91.3461 137.422 82.9699 133.172 74.2185C124.681 56.7373 115.66 37.6978 113.647 31.6581C113.382 30.8623 113.113 30.0379 112.837 29.1921C111.02 23.6267 108.901 17.134 105.571 11.7635C101.751 5.60125 96.3884 1 88.1213 1H40.2553ZM113.296 7.60192e-10H150.435L196.084 94.2751L234.786 7.60192e-10H269.905L196.147 158.63L113.296 7.60192e-10ZM114.947 1L196.095 156.37L268.337 1H235.457L196.159 96.725L149.808 1H114.947ZM312.121 0.5V7.60192e-10H352.121L352.268 0.976938L352.268 0.977986L352.265 0.978817L352.253 0.982706L352.2 0.999537C352.153 1.01484 352.082 1.03838 351.987 1.07061C351.798 1.13507 351.518 1.23431 351.154 1.37195C350.426 1.64725 349.367 2.07615 348.051 2.68781C345.418 3.91122 341.758 5.86507 337.661 8.78228C329.47 14.6158 319.534 24.3006 312.577 39.7058C305.573 55.2152 299.568 67.2239 295.314 75.3568C293.187 79.4232 291.498 82.5207 290.339 84.6025C289.76 85.6434 289.314 86.4303 289.012 86.9574C288.861 87.221 288.747 87.4196 288.669 87.5525C288.631 87.619 288.602 87.669 288.582 87.7026L288.553 87.7526C288.553 87.7526 288.552 87.7535 288.121 87.5L288.552 87.7535L288.47 87.8937L241.143 108.471L241.664 107.297L242.121 107.5C241.664 107.297 241.664 107.297 241.664 107.297L241.982 106.584C242.19 106.117 242.497 105.429 242.891 104.546C243.681 102.78 244.821 100.233 246.228 97.1073C249.041 90.8565 252.916 82.2928 257.167 73.0413C265.665 54.5448 275.673 33.2785 281.682 22.2606C287.737 11.1606 295.32 5.58785 301.413 2.79547C304.456 1.40077 307.121 0.702046 309.031 0.351948C309.986 0.176883 310.752 0.08891 311.283 0.0446961C311.548 0.0225874 311.755 0.0114143 311.896 0.00576779C311.967 0.00294447 312.022 0.00150257 312.06 0.000766487L312.103 0.0001072L312.116 1.6243e-05L312.119 2.74257e-06L312.121 7.60192e-10C312.121 7.60192e-10 312.121 0 312.121 0.5ZM4.63661e-06 31.9851L0.121272 31H40.1213C49.3432 31 55.485 36.1365 59.2977 42.3639C63.1001 48.5746 64.6213 55.9165 64.6213 60.5V270H31.6213V60.5C31.6213 50.2828 23.8353 43.1622 15.871 38.5579C11.9045 36.2647 7.9338 34.6202 4.95217 33.5487C3.46218 33.0132 2.22122 32.6216 1.35397 32.3641C0.920396 32.2354 0.580362 32.1402 0.349472 32.0775C0.23403 32.0461 0.145885 32.0228 0.0869874 32.0074L0.0208246 31.9904L0.00465504 31.9862L4.63661e-06 31.9851C4.63661e-06 31.9851 1.06124e-05 31.9851 0.0150896 31.9247L4.63661e-06 31.9851ZM3.52996 32C4.06631 32.1774 4.65621 32.3797 5.29037 32.6076C8.30874 33.6923 12.338 35.3603 16.3715 37.6921C24.4072 42.3378 32.6213 49.7172 32.6213 60.5V269H63.6213V60.5C63.6213 56.0835 62.1424 48.9254 58.4448 42.8861C54.7575 36.8635 48.8993 32 40.1213 32H3.52996ZM337.983 37.8101C341.834 33.0603 346.981 31 352.121 31H387.121L387.338 31.9505L387.317 31.9061C387.338 31.9505 387.338 31.9505 387.338 31.9505L387.334 31.9525L387.32 31.9592L387.264 31.9866C387.214 32.0111 387.14 32.048 387.042 32.0969C386.847 32.1948 386.559 32.3409 386.193 32.5328C385.46 32.9166 384.412 33.4834 383.153 34.2137C380.635 35.675 377.28 37.7875 373.928 40.3947C370.574 43.0037 367.238 46.096 364.744 49.5135C362.249 52.9323 360.621 56.6429 360.621 60.5V270H331.621V60.5C331.621 49.926 334.139 42.5513 337.983 37.8101ZM338.76 38.4399C335.104 42.9487 332.621 50.074 332.621 60.5V269H359.621V60.5C359.621 56.3572 361.368 52.4427 363.936 48.924C366.505 45.404 369.919 42.2463 373.314 39.6053C376.712 36.9625 380.107 34.825 382.652 33.3488C383.583 32.8085 384.401 32.3564 385.064 32H352.121C347.262 32 342.408 33.9397 338.76 38.4399ZM104.101 99.4889L158.498 124.122L196.127 206.312L234.757 124.1L283.068 106.626L196.126 297.697L104.101 99.4889ZM106.142 101.511L196.117 295.303L281.174 108.374L235.486 124.9L196.115 208.688L157.745 124.878L106.142 101.511ZM254.68 207.265L311.68 100.265L312.621 100.5V282H372.121C375.952 282 378.859 282.895 381.057 284.263C383.255 285.63 384.716 287.452 385.687 289.264C386.656 291.073 387.138 292.877 387.379 294.225C387.5 294.9 387.56 295.463 387.591 295.86C387.606 296.059 387.613 296.216 387.617 296.325C387.619 296.379 387.62 296.422 387.621 296.451L387.621 296.486L387.621 296.495V296.499C387.621 296.499 387.621 296.5 387.121 296.5L387.621 296.499V297H253.47L275.654 282.21L275.76 281.388C275.848 280.703 275.977 279.696 276.141 278.409C276.469 275.835 276.938 272.141 277.5 267.656C278.625 258.688 280.125 246.565 281.625 233.941C284.627 208.672 287.621 181.462 287.621 173.5C287.621 172.531 287.495 171.874 287.298 171.458C287.113 171.066 286.88 170.908 286.614 170.859C286.31 170.804 285.875 170.876 285.287 171.15C284.707 171.419 284.032 171.858 283.274 172.455C280.233 174.851 276.141 179.557 272.014 184.809C267.898 190.048 263.779 195.79 260.688 200.223C259.142 202.44 257.855 204.328 256.954 205.663C256.503 206.33 256.149 206.858 255.908 207.22C255.787 207.401 255.695 207.54 255.633 207.633L255.54 207.773L255.539 207.775C255.539 207.775 255.539 207.775 255.121 207.5L255.539 207.775L254.68 207.265ZM259.873 199.643C262.969 195.203 267.097 189.448 271.228 184.191C275.351 178.943 279.509 174.149 282.656 171.67C283.445 171.048 284.188 170.557 284.865 170.243C285.534 169.932 286.194 169.766 286.793 169.875C287.429 169.991 287.905 170.399 288.203 171.032C288.49 171.641 288.621 172.469 288.621 173.5C288.621 181.538 285.615 208.828 282.618 234.059C281.118 246.685 279.617 258.812 278.492 267.781C277.93 272.266 277.461 275.961 277.133 278.536C276.969 279.823 276.84 280.83 276.752 281.515L276.618 282.56L276.617 282.563C276.617 282.563 276.617 282.564 276.121 282.5L276.617 282.564L276.588 282.79L256.773 296H386.598C386.597 295.979 386.595 295.958 386.593 295.937C386.565 295.568 386.509 295.038 386.395 294.4C386.167 293.123 385.711 291.427 384.806 289.736C383.901 288.048 382.551 286.37 380.529 285.112C378.509 283.855 375.791 283 372.121 283H311.621V102.502L259.873 199.643ZM81.6213 100.5L82.571 100.281L134.571 207.281L133.751 207.836L133.755 207.832C133.751 207.836 133.751 207.836 133.751 207.836L133.75 207.835L133.748 207.832L133.524 207.587C133.375 207.424 133.153 207.182 132.866 206.87C132.293 206.245 131.458 205.34 130.411 204.216C128.319 201.967 125.384 198.844 122.011 195.347C115.263 188.349 106.777 179.863 99.7959 173.88C98.9495 173.154 98.4447 173.095 98.1581 173.21C97.8337 173.341 97.4691 173.804 97.1865 174.867C96.6361 176.937 96.573 180.603 96.9014 185.435C97.5555 195.061 99.7384 209.037 102.363 223.41C104.987 237.778 108.048 252.522 110.454 263.676C111.657 269.252 112.695 273.931 113.433 277.215C113.802 278.857 114.096 280.15 114.298 281.033C114.337 281.206 114.373 281.364 114.406 281.506C114.451 281.703 114.489 281.868 114.519 282H128.121C131.226 282 133.586 282.908 135.366 284.293C137.139 285.672 138.308 287.5 139.081 289.303C139.853 291.106 140.237 292.901 140.429 294.242C140.525 294.913 140.573 295.474 140.597 295.868C140.609 296.065 140.615 296.221 140.618 296.328C140.62 296.382 140.62 296.424 140.621 296.453L140.621 296.486L140.621 296.499C140.621 296.499 140.621 296.5 140.434 296.5L140.121 296.5H140.621V297H7.62127V296.5H8.12127C7.62127 296.5 7.62127 296.5 7.62127 296.5L7.62127 296.499L7.62128 296.496L7.62133 296.486L7.62169 296.453C7.6219 296.437 7.62222 296.418 7.62271 296.396C7.62314 296.376 7.62369 296.353 7.62441 296.328C7.62748 296.221 7.63357 296.065 7.64564 295.868C7.66978 295.474 7.71788 294.913 7.8138 294.242C8.00527 292.901 8.38913 291.106 9.1617 289.303C9.93425 287.5 11.1038 285.672 12.8768 284.293C14.6569 282.908 17.0163 282 20.1213 282H81.6213V100.5ZM8.63959 296C8.64089 295.977 8.64228 295.953 8.64377 295.929C8.66651 295.558 8.71217 295.024 8.80375 294.383C8.98727 293.099 9.35341 291.394 10.0808 289.697C10.8083 288 11.8887 286.328 13.4907 285.082C15.0857 283.842 17.2262 283 20.1213 283H82.6213V102.673L132.182 204.652C131.864 204.309 131.517 203.936 131.144 203.534C129.048 201.283 126.109 198.156 122.731 194.653C115.979 187.651 107.466 179.137 100.447 173.12C99.543 172.346 98.626 171.944 97.7846 172.283C96.9811 172.606 96.5118 173.513 96.2201 174.61C95.6221 176.859 95.5758 180.678 95.9037 185.503C96.562 195.189 98.7542 209.213 101.379 223.59C104.006 237.972 107.069 252.728 109.476 263.887C110.68 269.466 111.719 274.147 112.458 277.434C112.827 279.077 113.121 280.371 113.323 281.255C113.424 281.697 113.501 282.036 113.554 282.265L113.634 282.611C113.634 282.611 113.634 282.613 114.121 282.5L113.634 282.613L113.724 283H128.121C131.016 283 133.157 283.842 134.752 285.082C136.354 286.328 137.434 288 138.162 289.697C138.889 291.394 139.255 293.099 139.439 294.383C139.53 295.024 139.576 295.558 139.599 295.929C139.6 295.953 139.602 295.977 139.603 296H8.63959Z" fill="#1C938F"/>
</svg>
